<?xml version="1.0" standalone="no"?>
<!DOCTYPE svg PUBLIC "-//W3C//DTD SVG 20010904//EN"
 "http://www.w3.org/TR/2001/REC-SVG-20010904/DTD/svg10.dtd">
<svg version="1.0" xmlns="http://www.w3.org/2000/svg"
 width="50.000000pt" height="50.000000pt" viewBox="0 0 50.000000 50.000000"
 preserveAspectRatio="xMidYMid meet">

<g transform="translate(0.000000,50.000000) scale(0.100000,-0.100000)"
fill="#000000" stroke="none">
<path d="M201 450 c-14 -12 -38 -20 -62 -20 -37 0 -39 -1 -39 -33 0 -25 -9
-42 -35 -67 l-35 -34 0 -133 0 -133 220 0 220 0 0 133 0 133 -35 34 c-26 25
-35 42 -35 67 0 32 -2 33 -39 33 -23 0 -48 8 -64 20 -32 25 -65 25 -96 0z m74
-10 c4 -6 -7 -10 -25 -10 -18 0 -29 4 -25 10 3 6 15 10 25 10 10 0 22 -4 25
-10z m105 -119 c0 -86 -1 -90 -27 -109 l-27 -20 -38 21 -38 22 -38 -22 -38
-21 -27 20 c-26 19 -27 23 -27 109 l0 89 130 0 130 0 0 -89z m-280 -33 l0 -42
-22 21 c-21 22 -21 23 -3 43 10 11 20 20 22 20 1 0 3 -19 3 -42z m322 -20
l-22 -22 0 44 0 44 22 -22 22 -22 -22 -22z m-304 -57 l42 -33 -49 -39 c-27
-21 -52 -39 -55 -39 -3 0 -6 37 -6 81 0 64 3 79 13 72 6 -5 31 -24 55 -42z
m328 -108 c-3 -3 -28 13 -56 35 l-51 41 53 40 53 40 3 -76 c2 -41 1 -78 -2
-80z m-90 37 c49 -39 91 -75 92 -80 2 -6 -69 -10 -198 -10 -129 0 -200 4 -198
10 6 17 181 150 198 150 9 0 57 -32 106 -70z"/>
<path d="M150 350 c0 -6 40 -10 100 -10 60 0 100 4 100 10 0 6 -40 10 -100 10
-60 0 -100 -4 -100 -10z"/>
<path d="M150 300 c0 -6 28 -10 65 -10 37 0 65 4 65 10 0 6 -28 10 -65 10 -37
0 -65 -4 -65 -10z"/>
</g>
</svg>
